<svg width="16" height="18" viewBox="0 0 16 18" fill="none" xmlns="http://www.w3.org/2000/svg">
<path d="M12.1673 1.5V7.33333M12.1673 7.33333C10.7866 7.33333 9.66732 8.45262 9.66732 9.83333V10.6667C9.66732 12.0474 10.7866 13.1667 12.1673 13.1667C13.548 13.1667 14.6673 12.0474 14.6673 10.6667V9.83333C14.6673 8.45262 13.548 7.33333 12.1673 7.33333ZM3.83398 12.3333L3.83398 16.5M12.1673 15.6667V16.5M3.83398 1.5L3.83398 4M3.83398 4C2.45327 4 1.33398 5.11929 1.33398 6.5L1.33398 7.33333C1.33398 8.71404 2.45327 9.83333 3.83398 9.83333C5.2147 9.83333 6.33398 8.71405 6.33398 7.33333V6.5C6.33398 5.11929 5.2147 4 3.83398 4Z" stroke="#616161" stroke-width="1.66667" stroke-linecap="round" stroke-linejoin="round"/>
</svg>
