<svg width="20" height="20" viewBox="0 0 20 20" fill="none" xmlns="http://www.w3.org/2000/svg">
<path d="M5.0186 16.0456C5.0068 15.9766 5.00065 15.9057 5.00065 15.8333C5.00065 14.4526 6.11994 13.3333 7.50065 13.3333H12.5007C13.8814 13.3333 15.0007 14.4526 15.0007 15.8333C15.0007 15.9142 14.993 15.9934 14.9783 16.07M5.0186 16.0456C4.80801 15.7335 4.58027 15.3264 4.26165 14.7568L3.04966 12.5901C2.52086 11.6447 2.25645 11.1721 2.15279 10.6715C2.06105 10.2285 2.06105 9.77153 2.15279 9.3285C2.25645 8.82793 2.52086 8.35525 3.04966 7.40991L4.26165 5.24324C4.82014 4.24483 5.09939 3.74562 5.49656 3.38211C5.84792 3.06053 6.26438 2.81716 6.71807 2.66828C7.2309 2.5 7.8059 2.5 8.95591 2.5H11.0271C12.1771 2.5 12.7521 2.5 13.2649 2.66828C13.7186 2.81716 14.1351 3.06053 14.4864 3.38211C14.8836 3.74562 15.1629 4.24482 15.7213 5.24324L16.9626 7.46226C17.4812 8.38938 17.7405 8.85294 17.845 9.34434C17.9374 9.77932 17.9413 10.2283 17.8564 10.6648C17.7605 11.1579 17.5093 11.6258 17.0069 12.5617L16.5926 13.3333L15.7344 14.8197C15.4163 15.3707 15.1879 15.7662 14.9783 16.07M5.0186 16.0456C5.17715 16.2806 5.32598 16.4618 5.49656 16.6179C5.84793 16.9395 6.26438 17.1828 6.71807 17.3317C7.2309 17.5 7.8059 17.5 8.95591 17.5H11.0759C12.209 17.5 12.7756 17.5 13.2825 17.3359C13.7309 17.1908 14.1436 16.9534 14.4934 16.6392C14.6657 16.4845 14.8164 16.3046 14.9783 16.07M12.5007 8.33333C12.5007 9.71405 11.3814 10.8333 10.0007 10.8333C8.61994 10.8333 7.50065 9.71405 7.50065 8.33333C7.50065 6.95262 8.61994 5.83333 10.0007 5.83333C11.3814 5.83333 12.5007 6.95262 12.5007 8.33333Z" stroke="white" stroke-width="1.5" stroke-linecap="round" stroke-linejoin="round"/>
</svg>
